<!--?xml version="1.0" standalone="no"?-->
              <svg id="sw-js-blob-svg" viewBox="0 0 100 100" xmlns="http://www.w3.org/2000/svg" version="1.1">
                    <defs> 
                        <linearGradient id="sw-gradient" x1="0" x2="1" y1="1" y2="0">
                            <stop id="stop1" stop-color="rgba(78, 131, 151, 1)" offset="0%"></stop>
                            <stop id="stop2" stop-color="rgba(174.34, 208.984, 222.058, 1)" offset="100%"></stop>
                        </linearGradient>
                    </defs>
                <path fill="url(#sw-gradient)" d="M23.2,-32.7C30.6,-31.4,37.5,-25.8,38.6,-18.9C39.8,-12,35.1,-3.8,31,2.3C26.8,8.5,23,12.6,20.1,19.2C17.2,25.8,15.1,34.9,10.1,38.2C5.1,41.5,-2.8,39,-9.5,35.6C-16.3,32.2,-21.8,28,-25.4,22.7C-29,17.4,-30.5,11,-29.8,5.3C-29,-0.4,-25.9,-5.4,-24.7,-12.6C-23.4,-19.8,-24.1,-29.2,-20.3,-32.1C-16.5,-35,-8.3,-31.5,-0.2,-31.2C7.9,-31,15.9,-34,23.2,-32.7Z" width="100%" height="100%" transform="translate(50 50)" stroke-width="0" style="transition: all 0.3s ease 0s;"></path>
              </svg>