<!--?xml version="1.0" standalone="no"?-->
              <svg id="sw-js-blob-svg" viewBox="0 0 100 100" xmlns="http://www.w3.org/2000/svg" version="1.1">
                    <defs> 
                        <linearGradient id="sw-gradient" x1="0" x2="1" y1="1" y2="0">
                            <stop id="stop1" stop-color="rgba(78, 131, 151, 1)" offset="0%"></stop>
                            <stop id="stop2" stop-color="rgba(174.34, 208.984, 222.058, 1)" offset="100%"></stop>
                        </linearGradient>
                    </defs>
                <path fill="url(#sw-gradient)" d="M18.4,-30.9C23.1,-25.7,25.6,-19.2,28.8,-12.9C32.1,-6.6,36.2,-0.4,35.3,5C34.4,10.4,28.6,15,24.2,22C19.8,28.9,16.9,38.2,11.8,39.4C6.6,40.6,-0.6,33.8,-8.6,30.8C-16.6,27.8,-25.3,28.6,-31.9,25.3C-38.6,21.9,-43.3,14.4,-43.8,6.7C-44.3,-1,-40.7,-9,-35.3,-14.1C-29.8,-19.2,-22.5,-21.4,-16.3,-25.9C-10.1,-30.4,-5.1,-37.1,0.9,-38.5C6.9,-40,13.8,-36,18.4,-30.9Z" width="100%" height="100%" transform="translate(50 50)" stroke-width="0" style="transition: all 0.3s ease 0s;"></path>
              </svg>