<!--?xml version="1.0" standalone="no"?-->
              <svg id="sw-js-blob-svg" viewBox="0 0 100 100" xmlns="http://www.w3.org/2000/svg" version="1.1">
                    <defs> 
                        <linearGradient id="sw-gradient" x1="0" x2="1" y1="1" y2="0">
                            <stop id="stop1" stop-color="rgba(78, 131, 151, 1)" offset="0%"></stop>
                            <stop id="stop2" stop-color="rgba(174.34, 208.984, 222.058, 1)" offset="100%"></stop>
                        </linearGradient>
                    </defs>
                <path fill="url(#sw-gradient)" d="M22.7,-34.6C30.1,-30.7,37,-25.4,37.8,-18.7C38.6,-12,33.3,-4,31.7,4.3C30,12.5,32.1,21.1,29.4,27.2C26.7,33.3,19.3,37,12.3,36.7C5.2,36.4,-1.5,32.1,-7.7,29C-14,26,-19.8,24.1,-23,20.1C-26.1,16.1,-26.6,10,-29,3.3C-31.4,-3.5,-35.7,-10.9,-34.1,-16.1C-32.6,-21.4,-25.1,-24.5,-18.5,-28.7C-11.8,-33,-5.9,-38.3,0.9,-39.7C7.7,-41.1,15.4,-38.6,22.7,-34.6Z" width="100%" height="100%" transform="translate(50 50)" stroke-width="0" style="transition: all 0.3s ease 0s;"></path>
              </svg>